<svg xmlns="http://www.w3.org/2000/svg" viewBox="0 0 1200 760"><defs><linearGradient id="s" x1="0" y1="0" x2="1" y2="1"><stop stop-color="#061522"/><stop offset=".55" stop-color="#15313b"/><stop offset="1" stop-color="#07100d"/></linearGradient><radialGradient id="g"><stop stop-color="#79f5ff" stop-opacity=".44"/><stop offset="1" stop-color="#79f5ff" stop-opacity="0"/></radialGradient><filter id="n"><feTurbulence baseFrequency=".74" numOctaves="3" seed="71"/><feComponentTransfer><feFuncA type="table" tableValues="0 .065"/></feComponentTransfer></filter></defs><rect width="1200" height="760" fill="url(#s)"/><ellipse cx="880" cy="105" rx="350" ry="190" fill="url(#g)"/><path d="M0 455 L150 350 280 425 420 305 570 435 770 330 930 430 1200 340 1200 560 0 560Z" fill="#0b181c"/><path d="M0 525 C240 500 390 520 620 480 C860 435 1010 455 1200 410 L1200 610 0 610Z" fill="#103644"/><path d="M0 575 C190 505 370 545 550 490 C760 425 950 455 1200 380 L1200 760 0 760Z" fill="#163829"/><g transform="translate(635 405)"><rect x="0" width="15" height="190" rx="7" fill="#dfffaf"/><rect x="-60" y="42" width="136" height="10" rx="5" fill="#dfffaf"/><path d="M-45 52 L-30 122 M-24 52 L-12 122 M-4 52 L0 122 M16 52 L14 122 M36 52 L31 122 M56 52 L47 122" stroke="#dfffaf" stroke-width="4"/><rect x="-37" y="122" width="88" height="10" rx="5" fill="#dfffaf"/></g><path d="M120 650 C350 585 570 610 840 535" fill="none" stroke="#79f5ff" stroke-opacity=".18" stroke-width="3"/><circle cx="635" cy="495" r="132" fill="none" stroke="#79f5ff" stroke-opacity=".09"/><text x="42" y="705" fill="#dfffb0" fill-opacity=".34" font-family="Arial,sans-serif" font-size="18" font-weight="700" letter-spacing="5">GRÍMSEY</text><rect width="1200" height="760" filter="url(#n)" opacity=".24"/></svg>