<svg xmlns="http://www.w3.org/2000/svg" viewBox="0 0 1600 1000">
<defs><linearGradient id="b" x1="0" y1="0" x2="1" y2="1"><stop stop-color="#071318"/><stop offset=".55" stop-color="#162927"/><stop offset="1" stop-color="#0a110d"/></linearGradient><radialGradient id="r"><stop stop-color="#d8ff9d" stop-opacity=".6"/><stop offset="1" stop-color="#63e4ff" stop-opacity="0"/></radialGradient><filter id="g"><feTurbulence baseFrequency=".7" numOctaves="3" seed="4"/><feComponentTransfer><feFuncA type="table" tableValues="0 .08"/></feComponentTransfer></filter></defs>
<rect width="1600" height="1000" fill="url(#b)"/>
<ellipse cx="420" cy="220" rx="420" ry="250" fill="url(#r)" opacity=".7"/>
<path d="M0 700 C220 650 410 670 610 610 C820 550 1030 570 1220 500 C1390 440 1500 470 1600 430 L1600 1000 0 1000Z" fill="#132118"/>
<g fill="#1b3025" opacity=".9"><rect x="70" y="610" width="170" height="150"/><rect x="260" y="570" width="230" height="190"/><rect x="520" y="620" width="160" height="140"/><rect x="700" y="540" width="260" height="220"/><rect x="995" y="600" width="180" height="160"/><rect x="1200" y="520" width="270" height="240"/></g>
<g fill="#9dffb8" opacity=".18"><rect x="115" y="640" width="18" height="18"/><rect x="335" y="610" width="18" height="18"/><rect x="810" y="590" width="18" height="18"/><rect x="1300" y="570" width="18" height="18"/></g>
<path d="M1180 330 C1120 440 1110 540 1110 700" stroke="#d8ff9d" stroke-width="10" opacity=".8"/><path d="M1180 330 C1240 440 1250 540 1250 700" stroke="#d8ff9d" stroke-width="10" opacity=".8"/><path d="M1090 460 H1270" stroke="#d8ff9d" stroke-width="10"/>
<rect width="1600" height="1000" filter="url(#g)" opacity=".22"/>
</svg>